<svg id="Calque_1" data-name="Calque 1" xmlns="http://www.w3.org/2000/svg" viewBox="0 0 612.28 623.62"><defs><style>.cls-1{fill:#010201;}.cls-2{fill:#7f7f7f;}.cls-3{fill:#fff;}.cls-4{fill:#bf4c4c;}</style></defs><path class="cls-1" d="M304.09,574.87c9.83,0,23.08-5,23.08-5l-23.08,39.49L281,569.83s13.41,5,23.08,5Z"/><circle class="cls-1" cx="230.46" cy="33.22" r="7.08"/><circle class="cls-1" cx="378.91" cy="35.94" r="7.53"/><path class="cls-2" d="M251,534.46l77.24-91.77L219.39,297.84,116,357.89l7.89-190.09,96,127.79L370.66,208l.86,1.49L220.89,297,329.34,441.34l70.52-83.77,1.31,1.1L330.4,442.76l43.32,57.67Zm78.3-90.35-73.4,87.2,115-31.87ZM125.38,172.69l-7.56,182.13,100.53-58.36Z"/><rect class="cls-2" x="104.64" y="278.02" width="1.72" height="79.99" transform="translate(-86.21 43.23) rotate(-16.55)"/><polygon class="cls-2" points="116.92 357.14 45.83 278.95 94.1 278.53 94.12 280.83 50.98 281.2 118.62 355.59 116.92 357.14"/><polygon class="cls-2" points="94.09 284.03 70.47 196.01 72.69 195.42 94.13 275.33 123.13 171.32 45.59 167.41 90.95 282.51 88.81 283.35 42.15 164.94 126.11 169.17 94.09 284.03"/><path class="cls-2" d="M164.61,331,48,281.13l.9-2.11L162.7,327.71l10.83-89.52L71.15,196.78l.68-2.19,129.22,28.33,165-14.84L261.82,168.36l38.52-46.62-27.27-29v-.43s-.05-1.42-.18-3.86l2.29-.12c.09,1.67.14,2.87.17,3.47L301.81,120l29.44-35.62,15.66,87-45-47.92-36.29,43.93,110.51,42.13L200.9,225.23l-.17,0L84.61,199.75l91.41,37ZM303.4,121.64l39.88,42.47-13.42-74.5Z"/><rect class="cls-2" x="460.51" y="134.16" width="2" height="186.59" transform="translate(125.87 617.42) rotate(-75.52)"/><rect class="cls-2" x="532.32" y="161.9" width="2" height="93.73" transform="translate(-38.93 232.19) rotate(-23.72)"/><rect class="cls-2" x="452.71" y="257.04" width="100.1" height="2" transform="matrix(0.99, -0.16, 0.16, 0.99, -34.49, 82.8)"/><rect class="cls-2" x="527.65" y="283.08" width="34.76" height="1.15" transform="translate(-69.36 289.79) rotate(-28.07)"/><path class="cls-2" d="M510.68,177.17l-139,87.63,26,98.08-188.26,2.2L369.73,264,344.5,168.83,241.86,203.12,93.57,280.93,69.39,195.27l47.11-23.86.78,1.54L71.43,196.16l23.22,82.26,146.54-76.87,104.5-34.93.24.89,25.33,95.55L516,171.77m-145.84,94L215.54,363.29l180-2.11Z"/><path d="M565.8,279.28c-.8-3-3.12-5.1-6.51-6.56-4.76-2-11.62-2.81-19.41-2.94,43.36-37.56,41.36-85.21,32.9-102.55a14.2,14.2,0,0,0-.73-1.32c-2.23-3.69-5.78-6.26-10.59-7.85-20.41-6.76-63.54,4-125.25,20.52-21.94,5.87-44.57,11.92-66.38,16.92l-1.77.41a150.84,150.84,0,0,0-17.64-27.73c17.06-9.43,27.06-23.57,27.06-38.67,0-27.36-32.85-49.67-73.42-50-35.85.31-65.68,17.75-72.16,40.68,0,.12-.07.25-.1.37a36.73,36.73,0,0,0-1.11,9c0,15.1,10,29.24,27.07,38.67l-.08.09-1.18,1.46a154.71,154.71,0,0,0-16.39,26.18h-.05l0,0c-22.41-5.08-45.71-11.31-68.28-17.34C120.19,164.8,81.58,155,58.39,156.12c-1.2.06-2.36.14-3.47.26l-1.26.15c-1,.14-2,.3-3,.49-7.48,1.52-12.62,4.79-15.27,10.21-8.45,17.34-10.45,65,32.9,102.55h-.37l.12.1c-9.34.17-17.35,1.26-22,4.37a.05.05,0,0,0,0,0l-.59.44a8.55,8.55,0,0,0-3.38,6.47c-1.09,20,5.14,37.14,18.51,50.86C86,358.14,135.56,370.6,208,369.12c.35,14.37,1.28,28.29,2.74,41.65,0,.15,0,.3.05.45C221,499.35,255.56,564.7,297.69,571.54a46,46,0,0,0,5.39.32c52,0,94.21-88.67,97.09-202.74l2.06,0q15.56.25,29.68-.34,44.28-1.89,74.36-12.26,26.24-9,41.33-24.5c13.37-13.72,19.6-30.83,18.51-50.86A9,9,0,0,0,565.8,279.28Zm-24.75,46.39c-18.84,19.35-52.84,30.59-101.34,33.59q-20.26,1.28-43.89.6l-2.62-.07-2-.06-.08,4.63c-1.73,109.37-41.22,198.35-88,198.35-1.17,0-2.33-.06-3.49-.16h-.07c-39.14-3.77-71.47-69.38-80.19-158.08,0-.33-.07-.65-.1-1-1.28-12.6-2-25.63-2.26-39l-.08-4.65-4.64.13C139.88,362,91,350.52,66.89,325.75c-11.62-12-16.8-26.27-15.84-43.76a.67.67,0,0,1,.15-.13l.07-.07c.83-.8,5.64-3.73,30.45-2.59l15.18.71L84.32,271c-47-33.31-49.83-81.37-40.86-99.7,1-2,3-3.52,5.75-4.52l.19-.07.55-.18a5.76,5.76,0,0,1,.59-.18c19.33-5.6,71.87,8.45,119.06,21.08,23.8,6.36,48.42,12.94,72,18.2l3.52.79,1.55-3.22q3.74-7.77,7.82-14.49l1.17-1.9c.9-1.42,1.8-2.81,2.72-4.16a108.77,108.77,0,0,1,10-12.81l4.21-4.59-5.73-2.61c-17-7.74-27.14-20.11-27.14-33.1a26.46,26.46,0,0,1,.89-6.76c4.83-19.61,30.51-34.14,62.41-34.14q1.37,0,2.7,0c34.73.9,62.55,18.87,62.55,40.84,0,13-10.14,25.31-27.12,33.07l-5.74,2.62,4.27,4.64c7.85,8.54,15.15,19.74,21.69,33.31l1.58,3.27,1.72-.38,1.82-.41c14.08-3.14,28.51-6.74,42.91-10.5,9.76-2.53,19.5-5.13,29.11-7.7,19.48-5.21,39.87-10.67,58.47-14.88,29-6.58,53.63-10.14,63.57-5.05a8.49,8.49,0,0,1,3.95,3.75c9,18.36,6.14,66.43-40.95,99.64l-12.81,9,15.66-.73c11.41-.53,18.59-.19,23.1.41.76.1,1.44.21,2.06.32,3.92.71,5.07,1.61,5.36,1.93C557.34,288.49,558.25,308,541.05,325.67Z"/><path class="cls-2" d="M544.58,333.69c-.1,0-58.81-22.77-58.91-22.81L373.33,267.27,242.26,206.6a.87.87,0,0,1-.42-1.15A.84.84,0,0,1,243,205l131,60.64,171.21,66.41c.44.17-1,.05-1.12.49S544.93,333.69,544.58,333.69Z"/><path class="cls-2" d="M546.15,327.72a1,1,0,0,1-.48-.14L371.94,212.69a.86.86,0,0,1-.24-1.19.87.87,0,0,1,1.2-.24L546.63,326.14a.88.88,0,0,1,.24,1.2A.86.86,0,0,1,546.15,327.72Z"/><polygon class="cls-2" points="219.91 297.87 219.18 295.7 404.02 233.2 435.95 222.31 570.28 173.55 571.02 175.72 436.69 224.49 404.76 235.37 219.91 297.87"/><polyline class="cls-2" points="437.95 292.25 436.03 291 514.05 170.91 515.97 172.17"/><polygon class="cls-2" points="395.42 357.5 234.71 248.26 235.7 246.85 394.77 354.29 437.17 289.25 438.91 290.78 395.42 357.5"/><polygon class="cls-2" points="408.16 356.6 407.63 355.58 529.42 291.32 529.97 292.34 408.16 356.6"/><polygon class="cls-2" points="374.1 362.87 374.09 361.72 396.46 361.46 407.63 355.58 408.16 356.6 396.61 362.6 374.1 362.87"/><polygon class="cls-2" points="212.23 365.05 212 364.88 93.12 280.03 124.12 168.85 125.12 169.54 235.7 246.85 234.71 248.26 125.13 171.65 95.1 279.33 212.77 363.32 269.8 362.65 269.82 364.37 212.23 365.05"/><path class="cls-1" d="M271.73,88.47c-2.63-47.13-12.35-66.66-20.57-69.22-5.39-1.69-12.16,2.63-20.08,12.84l-3.63-2.81c9.22-11.88,17.66-16.72,25.08-14.42C270.62,20.5,275.19,68,276.31,88.21Z"/><path class="cls-1" d="M333.18,91.22l-4.59-.13A267.87,267.87,0,0,1,332,57.42c4.09-23.58,10.83-37.1,20-40.18,7.62-2.58,16.38,2.06,26,13.75l-3.56,2.86c-8.32-10.07-15.39-14.21-21-12.33C338.29,26.65,333.67,73.57,333.18,91.22Z"/><circle class="cls-3" cx="122.44" cy="172.27" r="10.32"/><path class="cls-1" d="M122.44,184.88a12.62,12.62,0,1,1,12.62-12.61A12.63,12.63,0,0,1,122.44,184.88Zm0-20.63a8,8,0,1,0,8,8A8,8,0,0,0,122.44,164.25Z"/><path class="cls-3" d="M509.15,174.71a10.32,10.32,0,1,1,5.32,1.48,10.31,10.31,0,0,1-5.32-1.48"/><path class="cls-1" d="M514.47,178.49a12.62,12.62,0,0,1-6.51-1.81h0a12.63,12.63,0,1,1,6.51,1.81Zm0-20.66a8,8,0,0,0-4.14,14.92h0a8,8,0,1,0,4.14-14.92Z"/><circle class="cls-3" cx="238.77" cy="201.73" r="9.5"/><path class="cls-1" d="M238.77,213.52a11.8,11.8,0,1,1,11.8-11.79A11.81,11.81,0,0,1,238.77,213.52Zm0-19a7.21,7.21,0,1,0,7.21,7.21A7.21,7.21,0,0,0,238.77,194.52Z"/><circle class="cls-3" cx="371.18" cy="204.13" r="8.96"/><path class="cls-1" d="M371.18,215.38a11.26,11.26,0,1,1,11.26-11.26A11.26,11.26,0,0,1,371.18,215.38Zm0-17.92a6.67,6.67,0,1,0,6.66,6.66A6.67,6.67,0,0,0,371.18,197.46Z"/><circle class="cls-3" cx="344.38" cy="167.23" r="7.75"/><path class="cls-1" d="M344.38,177.28a10,10,0,1,1,10.05-10.05A10.06,10.06,0,0,1,344.38,177.28Zm0-15.51a5.46,5.46,0,1,0,5.46,5.46A5.47,5.47,0,0,0,344.38,161.77Z"/><circle class="cls-3" cx="301.25" cy="122.55" r="5.15"/><path class="cls-1" d="M301.25,128.85a6.3,6.3,0,1,1,6.3-6.3A6.3,6.3,0,0,1,301.25,128.85Zm0-10.29a4,4,0,1,0,4,4A4,4,0,0,0,301.25,118.56Z"/><circle class="cls-3" cx="264.09" cy="167.87" r="8.6"/><path class="cls-1" d="M264.09,178.78a10.9,10.9,0,1,1,10.9-10.9A10.92,10.92,0,0,1,264.09,178.78Zm0-17.21a6.31,6.31,0,1,0,6.31,6.31A6.32,6.32,0,0,0,264.09,161.57Z"/><circle class="cls-3" cx="395.88" cy="364.48" r="9.47"/><path class="cls-1" d="M395.88,376.25a11.77,11.77,0,1,1,11.77-11.77A11.78,11.78,0,0,1,395.88,376.25Zm0-18.95a7.18,7.18,0,1,0,7.18,7.18A7.19,7.19,0,0,0,395.88,357.3Z"/><circle class="cls-3" cx="93.3" cy="280.49" r="9.54"/><path class="cls-1" d="M93.3,292.33a11.84,11.84,0,1,1,11.83-11.84A11.85,11.85,0,0,1,93.3,292.33Zm0-19.09a7.25,7.25,0,1,0,7.24,7.25A7.26,7.26,0,0,0,93.3,273.24Z"/><circle class="cls-3" cx="543.28" cy="329.57" r="8.47"/><path class="cls-1" d="M543.28,340.33a10.77,10.77,0,1,1,10.77-10.76A10.78,10.78,0,0,1,543.28,340.33Zm0-16.94a6.18,6.18,0,1,0,6.18,6.18A6.18,6.18,0,0,0,543.28,323.39Z"/><circle class="cls-3" cx="555.98" cy="276.78" r="4.75"/><path class="cls-1" d="M556,282.82a6,6,0,1,1,6-6A6,6,0,0,1,556,282.82Zm0-9.5a3.46,3.46,0,1,0,3.46,3.46A3.47,3.47,0,0,0,556,273.32Z"/><circle class="cls-3" cx="453.34" cy="265.95" r="5.12"/><path class="cls-1" d="M453.34,272.22a6.27,6.27,0,1,1,6.27-6.27A6.27,6.27,0,0,1,453.34,272.22Zm0-10.24a4,4,0,1,0,4,4A4,4,0,0,0,453.34,262Z"/><circle class="cls-3" cx="209.77" cy="366.91" r="11.02"/><path class="cls-1" d="M209.77,380.23a13.32,13.32,0,1,1,13.32-13.32A13.33,13.33,0,0,1,209.77,380.23Zm0-22.05a8.73,8.73,0,1,0,8.73,8.73A8.74,8.74,0,0,0,209.77,358.18Z"/><circle class="cls-3" cx="71.58" cy="195.71" r="4.12"/><path class="cls-1" d="M71.58,201a5.27,5.27,0,1,1,5.27-5.27A5.27,5.27,0,0,1,71.58,201Zm0-8.24a3,3,0,1,0,3,3A3,3,0,0,0,71.58,192.74Z"/><circle class="cls-3" cx="200.98" cy="224.08" r="4.12"/><path class="cls-1" d="M201,229.34a5.27,5.27,0,1,1,5.26-5.27A5.27,5.27,0,0,1,201,229.34Zm0-8.24a3,3,0,1,0,3,3A3,3,0,0,0,201,221.1Z"/><circle class="cls-3" cx="174.78" cy="237.45" r="4.12"/><path class="cls-1" d="M174.78,242.72a5.27,5.27,0,1,1,5.26-5.27A5.27,5.27,0,0,1,174.78,242.72Zm0-8.24a3,3,0,1,0,3,3A3,3,0,0,0,174.78,234.48Z"/><circle class="cls-3" cx="436.71" cy="223.56" r="4.12"/><path class="cls-1" d="M436.71,228.83a5.27,5.27,0,1,1,5.27-5.27A5.28,5.28,0,0,1,436.71,228.83Zm0-8.24a3,3,0,1,0,3,3A3,3,0,0,0,436.71,220.59Z"/><circle class="cls-3" cx="496.4" cy="201.89" r="4.12"/><path class="cls-1" d="M496.4,207.16a5.27,5.27,0,1,1,5.27-5.27A5.27,5.27,0,0,1,496.4,207.16Zm0-8.24a3,3,0,1,0,3,3A3,3,0,0,0,496.4,198.92Z"/><circle class="cls-3" cx="490.92" cy="311.89" r="4.12"/><path class="cls-1" d="M490.92,317.16a5.27,5.27,0,1,1,5.27-5.26A5.27,5.27,0,0,1,490.92,317.16Zm0-8.24a3,3,0,1,0,3,3A3,3,0,0,0,490.92,308.92Z"/><circle class="cls-3" cx="163.65" cy="329.37" r="4.12"/><path class="cls-1" d="M163.65,334.64a5.27,5.27,0,1,1,5.27-5.27A5.28,5.28,0,0,1,163.65,334.64Zm0-8.24a3,3,0,1,0,3,3A3,3,0,0,0,163.65,326.4Z"/><circle class="cls-3" cx="116.32" cy="356.24" r="5.17"/><path class="cls-1" d="M116.32,362.55a6.31,6.31,0,1,1,6.31-6.31A6.32,6.32,0,0,1,116.32,362.55Zm0-10.33a4,4,0,1,0,4,4A4,4,0,0,0,116.32,352.22Z"/><circle class="cls-3" cx="255.23" cy="532.25" r="4.12"/><path class="cls-1" d="M255.23,537.51a5.27,5.27,0,1,1,5.27-5.26A5.27,5.27,0,0,1,255.23,537.51Zm0-8.23a3,3,0,1,0,3,3A3,3,0,0,0,255.23,529.28Z"/><circle class="cls-3" cx="372.14" cy="499.83" r="4.12"/><path class="cls-1" d="M372.14,505.09a5.27,5.27,0,1,1,5.26-5.26A5.27,5.27,0,0,1,372.14,505.09Zm0-8.23a3,3,0,1,0,3,3A3,3,0,0,0,372.14,496.86Z"/><circle class="cls-3" cx="119.48" cy="297.69" r="4.12"/><path class="cls-1" d="M119.48,303a5.27,5.27,0,1,1,5.27-5.27A5.28,5.28,0,0,1,119.48,303Zm0-8.24a3,3,0,1,0,3,3A3,3,0,0,0,119.48,294.72Z"/><circle class="cls-3" cx="219.54" cy="296.79" r="4.12"/><path class="cls-1" d="M219.54,302.05a5.27,5.27,0,1,1,5.27-5.26A5.27,5.27,0,0,1,219.54,302.05Zm0-8.23a3,3,0,1,0,3,3A3,3,0,0,0,219.54,293.82Z"/><circle class="cls-3" cx="357.3" cy="217.91" r="3.28"/><path class="cls-1" d="M357.3,222.34a4.43,4.43,0,1,1,4.43-4.43A4.44,4.44,0,0,1,357.3,222.34Zm0-6.56a2.13,2.13,0,1,0,2.13,2.13A2.13,2.13,0,0,0,357.3,215.78Z"/><circle class="cls-3" cx="120.96" cy="265.69" r="4.12"/><path class="cls-1" d="M121,271a5.27,5.27,0,1,1,5.27-5.27A5.27,5.27,0,0,1,121,271Zm0-8.24a3,3,0,1,0,3,3A3,3,0,0,0,121,262.72Z"/><circle class="cls-3" cx="48.41" cy="280.07" r="4.12"/><path class="cls-1" d="M48.41,285.34a5.27,5.27,0,1,1,5.26-5.27A5.27,5.27,0,0,1,48.41,285.34Zm0-8.24a3,3,0,1,0,3,3A3,3,0,0,0,48.41,277.1Z"/><circle class="cls-3" cx="43.87" cy="166.18" r="4.12"/><path class="cls-1" d="M43.87,171.44a5.27,5.27,0,1,1,5.27-5.26A5.27,5.27,0,0,1,43.87,171.44Zm0-8.24a3,3,0,1,0,3,3A3,3,0,0,0,43.87,163.2Z"/><circle class="cls-3" cx="570.65" cy="174.63" r="4.12"/><path class="cls-1" d="M570.65,179.9a5.27,5.27,0,1,1,5.27-5.26A5.27,5.27,0,0,1,570.65,179.9Zm0-8.24a3,3,0,1,0,3,3A3,3,0,0,0,570.65,171.66Z"/><path class="cls-4" d="M246.7,203.2l-1.55,3.22h0l1.58-3.27q3.72-7.76,7.77-14.44Q250.44,195.42,246.7,203.2Z"/><circle class="cls-3" cx="551.84" cy="250.79" r="4.58"/><path class="cls-1" d="M551.84,256.65a5.86,5.86,0,1,1,5.86-5.86A5.87,5.87,0,0,1,551.84,256.65Zm0-9.17a3.31,3.31,0,1,0,3.31,3.31A3.31,3.31,0,0,0,551.84,247.48Z"/><path class="cls-1" d="M392.5,414.76c0,50-35,78.41-89.18,78.41-52.65,0-78.81-23.45-87.65-75l59.2-11.13c2.7,21.52,11.54,34.58,31.15,34.58,14.2,0,25-7.29,25-22.29,0-51.12-110.32-44.19-110.32-136.83,0-43,31.13-72.26,81.49-72.26,52.28,0,75.34,26.52,85.73,70l-55,11.52c-4.61-16.9-13.06-30.35-29.6-30.35-12.68,0-20.75,7.29-20.75,18.83C282.57,329.05,392.5,322.51,392.5,414.76Z"/></svg>