<svg id="Calque_1" data-name="Calque 1" xmlns="http://www.w3.org/2000/svg" viewBox="0 0 612.28 623.62"><defs><style>.cls-1{fill:#fefdfe;}.cls-2{fill:gray;}.cls-3{fill:#fff;}.cls-4{fill:#40b3b3;}</style></defs><path class="cls-1" d="M306.15,574.87c9.82,0,23.07-5,23.07-5l-23.07,39.49-23.09-39.49s13.41,5,23.08,5Z"/><circle class="cls-1" cx="232.52" cy="33.22" r="7.08"/><circle class="cls-1" cx="380.96" cy="35.94" r="7.53"/><path class="cls-2" d="M253,534.46l77.24-91.77L221.45,297.84,118,357.89l7.9-190.09,96,127.79L372.71,208l.87,1.49L223,297,331.39,441.34l70.52-83.77,1.32,1.1-70.78,84.09,43.32,57.67Zm78.3-90.35-73.4,87.2,115-31.87ZM127.44,172.69l-7.57,182.13L220.4,296.46Z"/><rect class="cls-2" x="106.69" y="278.02" width="1.72" height="79.99" transform="translate(-86.13 43.81) rotate(-16.55)"/><polygon class="cls-2" points="118.97 357.14 47.89 278.95 96.15 278.53 96.17 280.83 53.04 281.2 120.67 355.59 118.97 357.14"/><polygon class="cls-2" points="96.14 284.03 72.53 196.01 74.75 195.42 96.18 275.33 125.19 171.32 47.65 167.41 93 282.51 90.87 283.35 44.21 164.94 128.17 169.17 96.14 284.03"/><path class="cls-2" d="M166.66,331,50,281.13l.9-2.11,113.84,48.69,10.84-89.52L73.21,196.78l.67-2.19L203.1,222.92l165-14.84L263.87,168.36l38.52-46.62-27.27-29v-.43s-.05-1.42-.18-3.86l2.29-.12c.1,1.67.15,2.87.17,3.47L303.87,120,333.3,84.33l15.67,87-45-47.92-36.3,43.93L378.2,209.48,203,225.23l-.17,0L86.66,199.75l91.42,37ZM305.45,121.64l39.88,42.47-13.41-74.5Z"/><rect class="cls-2" x="462.57" y="134.16" width="2" height="186.59" transform="translate(127.41 619.41) rotate(-75.52)"/><rect class="cls-2" x="534.38" y="161.9" width="2" height="93.73" transform="translate(-38.75 233.02) rotate(-23.72)"/><rect class="cls-2" x="454.76" y="257.04" width="100.1" height="2" transform="matrix(0.99, -0.16, 0.16, 0.99, -34.47, 83.12)"/><rect class="cls-2" x="529.71" y="283.08" width="34.76" height="1.15" transform="translate(-69.12 290.75) rotate(-28.07)"/><path class="cls-2" d="M512.74,177.17l-139,87.63,26,98.08-188.25,2.2L371.78,264l-25.23-95.19L243.91,203.12,95.62,280.93,71.44,195.27l47.12-23.86.78,1.54L73.48,196.16,96.7,278.42l146.54-76.87,104.51-34.93.23.89,25.33,95.55,144.77-91.29m-145.83,94L217.59,363.29l180-2.11Z"/><path class="cls-3" d="M567.85,279.28c-.8-3-3.12-5.1-6.51-6.56-4.76-2-11.62-2.81-19.41-2.94,43.36-37.56,41.36-85.21,32.9-102.55a14.2,14.2,0,0,0-.73-1.32c-2.23-3.69-5.78-6.26-10.59-7.85-20.41-6.76-63.54,4-125.25,20.52-21.94,5.87-44.57,11.92-66.38,16.92l-1.77.41a150.84,150.84,0,0,0-17.64-27.73c17.06-9.43,27.06-23.57,27.06-38.67,0-27.36-32.85-49.67-73.42-50-35.85.31-65.68,17.75-72.16,40.68,0,.12-.07.25-.1.37a36.73,36.73,0,0,0-1.11,9c0,15.1,10,29.24,27.07,38.67l-.08.09-1.18,1.46a154.71,154.71,0,0,0-16.39,26.18h0l0,0c-22.41-5.08-45.71-11.31-68.28-17.34C122.24,164.8,83.63,155,60.44,156.12c-1.2.06-2.36.14-3.47.26l-1.26.15c-1,.14-2,.3-3,.49-7.48,1.52-12.62,4.79-15.27,10.21C29,184.57,27,232.23,70.34,269.78H70l.12.1c-9.34.17-17.35,1.26-22,4.37a.05.05,0,0,0,0,0l-.59.44a8.55,8.55,0,0,0-3.38,6.47c-1.09,20,5.14,37.14,18.51,50.86,25.41,26.08,75,38.54,147.43,37.06.35,14.37,1.28,28.29,2.74,41.65,0,.15,0,.3,0,.45,10.22,88.13,44.76,153.48,86.89,160.32a46,46,0,0,0,5.39.32c52,0,94.21-88.67,97.09-202.74l2.06,0q15.56.25,29.68-.34,44.28-1.89,74.36-12.26,26.23-9,41.33-24.5c13.37-13.72,19.6-30.83,18.51-50.86A9,9,0,0,0,567.85,279.28ZM543.1,325.67c-18.84,19.35-52.84,30.59-101.34,33.59q-20.26,1.28-43.89.6l-2.62-.07-2-.06-.08,4.63c-1.73,109.37-41.22,198.35-88,198.35-1.17,0-2.33-.06-3.49-.16h-.07c-39.14-3.77-71.47-69.38-80.19-158.08,0-.33-.07-.65-.1-1-1.28-12.6-2.05-25.63-2.26-39l-.08-4.65-4.64.13C141.93,362,93,350.52,68.94,325.75c-11.62-12-16.8-26.27-15.84-43.76a.67.67,0,0,1,.15-.13l.07-.07c.83-.8,5.64-3.73,30.45-2.59l15.18.71L86.37,271c-47-33.31-49.83-81.37-40.86-99.7,1-2,3-3.52,5.75-4.52l.19-.07.55-.18a5.76,5.76,0,0,1,.59-.18c19.33-5.6,71.87,8.45,119.06,21.08,23.8,6.36,48.42,12.94,72,18.2l3.52.79,1.55-3.22q3.74-7.77,7.82-14.49l1.17-1.9c.9-1.42,1.8-2.81,2.72-4.16a108.77,108.77,0,0,1,10-12.81l4.21-4.59L269,162.64c-17-7.74-27.14-20.11-27.14-33.1a26.46,26.46,0,0,1,.89-6.76c4.83-19.61,30.51-34.14,62.41-34.14q1.37,0,2.7,0c34.73.9,62.55,18.87,62.55,40.84,0,13-10.14,25.31-27.12,33.07l-5.74,2.62,4.27,4.64c7.85,8.54,15.15,19.74,21.69,33.31l1.58,3.27,1.72-.38,1.82-.41c14.08-3.14,28.51-6.74,42.91-10.5,9.76-2.53,19.5-5.13,29.11-7.7,19.48-5.21,39.87-10.67,58.47-14.88,29-6.58,53.63-10.14,63.57-5.05a8.49,8.49,0,0,1,4,3.75c8.95,18.36,6.14,66.43-41,99.64l-12.81,9,15.66-.73c11.41-.53,18.59-.19,23.1.41.76.1,1.44.21,2.06.32,3.92.71,5.07,1.61,5.36,1.93C559.39,288.49,560.3,308,543.1,325.67Z"/><path class="cls-2" d="M546.64,333.69c-.11,0-58.81-22.77-58.92-22.81L375.38,267.27,244.31,206.6a.87.87,0,0,1-.42-1.15A.86.86,0,0,1,245,205l131,60.64,171.2,66.41c.44.17-.94.05-1.11.49S547,333.69,546.64,333.69Z"/><path class="cls-2" d="M548.2,327.72a.89.89,0,0,1-.47-.14L374,212.69a.86.86,0,0,1,1-1.43L548.68,326.14a.86.86,0,0,1,.24,1.2A.85.85,0,0,1,548.2,327.72Z"/><polygon class="cls-2" points="221.96 297.87 221.23 295.7 406.07 233.2 438 222.31 572.34 173.55 573.07 175.72 438.74 224.49 406.81 235.37 221.96 297.87"/><polyline class="cls-2" points="440.01 292.25 438.08 291 516.1 170.91 518.03 172.17"/><polygon class="cls-2" points="397.47 357.5 236.77 248.26 237.75 246.85 396.83 354.29 439.23 289.25 440.96 290.78 397.47 357.5"/><polygon class="cls-2" points="410.21 356.6 409.68 355.58 531.48 291.32 532.02 292.34 410.21 356.6"/><polygon class="cls-2" points="376.15 362.87 376.14 361.72 398.51 361.46 409.68 355.58 410.21 356.6 398.66 362.6 376.15 362.87"/><polygon class="cls-2" points="214.28 365.05 214.06 364.88 95.17 280.03 126.17 168.85 127.17 169.54 237.75 246.85 236.77 248.26 127.18 171.65 97.15 279.33 214.83 363.32 271.85 362.65 271.87 364.37 214.28 365.05"/><path class="cls-1" d="M273.78,88.47c-2.62-47.13-12.34-66.66-20.56-69.22-5.4-1.69-12.16,2.63-20.09,12.84l-3.62-2.81c9.22-11.88,17.65-16.72,25.07-14.42,18.1,5.64,22.67,53.18,23.79,73.35Z"/><path class="cls-1" d="M335.23,91.22l-4.59-.13a271.2,271.2,0,0,1,3.46-33.67c4.09-23.58,10.82-37.1,20-40.18,7.62-2.58,16.38,2.06,26,13.75l-3.56,2.86c-8.32-10.07-15.39-14.21-21-12.33C340.35,26.65,335.73,73.57,335.23,91.22Z"/><circle cx="124.5" cy="172.27" r="10.32"/><path class="cls-1" d="M124.49,184.88a12.62,12.62,0,1,1,12.62-12.61A12.63,12.63,0,0,1,124.49,184.88Zm0-20.63a8,8,0,1,0,8,8A8,8,0,0,0,124.49,164.25Z"/><path d="M511.2,174.71a10.32,10.32,0,1,1,5.32,1.48,10.3,10.3,0,0,1-5.32-1.48"/><path class="cls-1" d="M516.52,178.49a12.62,12.62,0,0,1-6.51-1.81h0a12.63,12.63,0,1,1,6.51,1.81Zm0-20.66a8,8,0,0,0-4.14,14.92h0a8,8,0,1,0,4.14-14.92Z"/><circle cx="240.83" cy="201.73" r="9.5"/><path class="cls-1" d="M240.83,213.52a11.8,11.8,0,1,1,11.79-11.79A11.81,11.81,0,0,1,240.83,213.52Zm0-19a7.21,7.21,0,1,0,7.2,7.21A7.21,7.21,0,0,0,240.83,194.52Z"/><circle cx="373.23" cy="204.13" r="8.96"/><path class="cls-1" d="M373.23,215.38a11.26,11.26,0,1,1,11.26-11.26A11.27,11.27,0,0,1,373.23,215.38Zm0-17.92a6.67,6.67,0,1,0,6.67,6.66A6.67,6.67,0,0,0,373.23,197.46Z"/><circle cx="346.44" cy="167.23" r="7.75"/><path class="cls-1" d="M346.44,177.28a10,10,0,1,1,10.05-10.05A10.07,10.07,0,0,1,346.44,177.28Zm0-15.51a5.46,5.46,0,1,0,5.45,5.46A5.47,5.47,0,0,0,346.44,161.77Z"/><circle cx="303.31" cy="122.55" r="5.15"/><path class="cls-1" d="M303.31,128.85a6.3,6.3,0,1,1,6.29-6.3A6.31,6.31,0,0,1,303.31,128.85Zm0-10.29a4,4,0,1,0,4,4A4,4,0,0,0,303.31,118.56Z"/><circle cx="266.15" cy="167.87" r="8.6"/><path class="cls-1" d="M266.14,178.78a10.9,10.9,0,1,1,10.9-10.9A10.92,10.92,0,0,1,266.14,178.78Zm0-17.21a6.31,6.31,0,1,0,6.31,6.31A6.31,6.31,0,0,0,266.14,161.57Z"/><circle cx="397.94" cy="364.48" r="9.47"/><path class="cls-1" d="M397.94,376.25a11.77,11.77,0,1,1,11.77-11.77A11.78,11.78,0,0,1,397.94,376.25Zm0-18.95a7.18,7.18,0,1,0,7.17,7.18A7.19,7.19,0,0,0,397.94,357.3Z"/><circle cx="95.35" cy="280.49" r="9.54"/><path class="cls-1" d="M95.35,292.33a11.84,11.84,0,1,1,11.84-11.84A11.85,11.85,0,0,1,95.35,292.33Zm0-19.09a7.25,7.25,0,1,0,7.25,7.25A7.26,7.26,0,0,0,95.35,273.24Z"/><circle cx="545.34" cy="329.57" r="8.47"/><path class="cls-1" d="M545.34,340.33a10.77,10.77,0,1,1,10.77-10.76A10.78,10.78,0,0,1,545.34,340.33Zm0-16.94a6.18,6.18,0,1,0,6.17,6.18A6.18,6.18,0,0,0,545.34,323.39Z"/><circle cx="558.03" cy="276.78" r="4.75"/><path class="cls-1" d="M558,282.82a6,6,0,1,1,6-6A6,6,0,0,1,558,282.82Zm0-9.5a3.46,3.46,0,1,0,3.46,3.46A3.46,3.46,0,0,0,558,273.32Z"/><circle cx="455.39" cy="265.95" r="5.12"/><path class="cls-1" d="M455.39,272.22a6.27,6.27,0,1,1,6.27-6.27A6.28,6.28,0,0,1,455.39,272.22Zm0-10.24a4,4,0,1,0,4,4A4,4,0,0,0,455.39,262Z"/><circle cx="211.83" cy="366.91" r="11.02"/><path class="cls-1" d="M211.83,380.23a13.32,13.32,0,1,1,13.32-13.32A13.34,13.34,0,0,1,211.83,380.23Zm0-22.05a8.73,8.73,0,1,0,8.72,8.73A8.74,8.74,0,0,0,211.83,358.18Z"/><circle cx="73.64" cy="195.71" r="4.12"/><path class="cls-1" d="M73.64,201a5.27,5.27,0,1,1,5.26-5.27A5.27,5.27,0,0,1,73.64,201Zm0-8.24a3,3,0,1,0,3,3A3,3,0,0,0,73.64,192.74Z"/><circle cx="203.03" cy="224.08" r="4.12"/><path class="cls-1" d="M203,229.34a5.27,5.27,0,1,1,5.27-5.27A5.28,5.28,0,0,1,203,229.34Zm0-8.24a3,3,0,1,0,3,3A3,3,0,0,0,203,221.1Z"/><circle cx="176.83" cy="237.45" r="4.12"/><path class="cls-1" d="M176.83,242.72a5.27,5.27,0,1,1,5.27-5.27A5.28,5.28,0,0,1,176.83,242.72Zm0-8.24a3,3,0,1,0,3,3A3,3,0,0,0,176.83,234.48Z"/><circle cx="438.76" cy="223.56" r="4.12"/><path class="cls-1" d="M438.76,228.83a5.27,5.27,0,1,1,5.27-5.27A5.27,5.27,0,0,1,438.76,228.83Zm0-8.24a3,3,0,1,0,3,3A3,3,0,0,0,438.76,220.59Z"/><circle cx="498.46" cy="201.89" r="4.12"/><path class="cls-1" d="M498.46,207.16a5.27,5.27,0,1,1,5.26-5.27A5.27,5.27,0,0,1,498.46,207.16Zm0-8.24a3,3,0,1,0,3,3A3,3,0,0,0,498.46,198.92Z"/><circle cx="492.98" cy="311.89" r="4.12"/><path class="cls-1" d="M493,317.16a5.27,5.27,0,1,1,5.27-5.26A5.27,5.27,0,0,1,493,317.16Zm0-8.24a3,3,0,1,0,3,3A3,3,0,0,0,493,308.92Z"/><circle cx="165.71" cy="329.37" r="4.12"/><path class="cls-1" d="M165.71,334.64a5.27,5.27,0,1,1,5.26-5.27A5.28,5.28,0,0,1,165.71,334.64Zm0-8.24a3,3,0,1,0,3,3A3,3,0,0,0,165.71,326.4Z"/><circle cx="118.38" cy="356.24" r="5.17"/><path class="cls-1" d="M118.38,362.55a6.31,6.31,0,1,1,6.31-6.31A6.32,6.32,0,0,1,118.38,362.55Zm0-10.33a4,4,0,1,0,4,4A4,4,0,0,0,118.38,352.22Z"/><circle cx="257.29" cy="532.25" r="4.12"/><path class="cls-1" d="M257.29,537.51a5.27,5.27,0,1,1,5.26-5.26A5.27,5.27,0,0,1,257.29,537.51Zm0-8.23a3,3,0,1,0,3,3A3,3,0,0,0,257.29,529.28Z"/><circle cx="374.19" cy="499.83" r="4.12"/><path class="cls-1" d="M374.19,505.09a5.27,5.27,0,1,1,5.27-5.26A5.27,5.27,0,0,1,374.19,505.09Zm0-8.23a3,3,0,1,0,3,3A3,3,0,0,0,374.19,496.86Z"/><circle cx="121.53" cy="297.69" r="4.12"/><path class="cls-1" d="M121.53,303a5.27,5.27,0,1,1,5.27-5.27A5.27,5.27,0,0,1,121.53,303Zm0-8.24a3,3,0,1,0,3,3A3,3,0,0,0,121.53,294.72Z"/><circle cx="221.6" cy="296.79" r="4.12"/><path class="cls-1" d="M221.6,302.05a5.27,5.27,0,1,1,5.26-5.26A5.27,5.27,0,0,1,221.6,302.05Zm0-8.23a3,3,0,1,0,3,3A3,3,0,0,0,221.6,293.82Z"/><circle cx="359.35" cy="217.91" r="3.28"/><path class="cls-1" d="M359.35,222.34a4.43,4.43,0,1,1,4.43-4.43A4.43,4.43,0,0,1,359.35,222.34Zm0-6.56a2.13,2.13,0,1,0,2.13,2.13A2.14,2.14,0,0,0,359.35,215.78Z"/><circle cx="123.02" cy="265.69" r="4.12"/><path class="cls-1" d="M123,271a5.27,5.27,0,1,1,5.26-5.27A5.28,5.28,0,0,1,123,271Zm0-8.24a3,3,0,1,0,3,3A3,3,0,0,0,123,262.72Z"/><circle cx="50.46" cy="280.07" r="4.12"/><path class="cls-1" d="M50.46,285.34a5.27,5.27,0,1,1,5.27-5.27A5.28,5.28,0,0,1,50.46,285.34Zm0-8.24a3,3,0,1,0,3,3A3,3,0,0,0,50.46,277.1Z"/><circle cx="45.93" cy="166.18" r="4.12"/><path class="cls-1" d="M45.93,171.44a5.27,5.27,0,1,1,5.27-5.26A5.27,5.27,0,0,1,45.93,171.44Zm0-8.24a3,3,0,1,0,3,3A3,3,0,0,0,45.93,163.2Z"/><circle cx="572.7" cy="174.63" r="4.12"/><path class="cls-1" d="M572.7,179.9a5.27,5.27,0,1,1,5.27-5.26A5.27,5.27,0,0,1,572.7,179.9Zm0-8.24a3,3,0,1,0,3,3A3,3,0,0,0,572.7,171.66Z"/><path class="cls-4" d="M248.75,203.2l-1.55,3.22h0l1.58-3.27q3.72-7.76,7.77-14.44Q252.49,195.42,248.75,203.2Z"/><circle cx="553.9" cy="250.79" r="4.58"/><path class="cls-1" d="M553.9,256.65a5.86,5.86,0,1,1,5.86-5.86A5.87,5.87,0,0,1,553.9,256.65Zm0-9.17a3.31,3.31,0,1,0,3.3,3.31A3.32,3.32,0,0,0,553.9,247.48Z"/><path class="cls-1" d="M394.56,414.76c0,50-35,78.41-89.19,78.41-52.65,0-78.8-23.45-87.64-75l59.19-11.13c2.71,21.52,11.54,34.58,31.15,34.58,14.2,0,25-7.29,25-22.29,0-51.12-110.31-44.19-110.31-136.83,0-43,31.13-72.26,81.48-72.26,52.28,0,75.35,26.52,85.73,70l-55,11.52c-4.62-16.9-13.07-30.35-29.61-30.35-12.68,0-20.75,7.29-20.75,18.83C284.62,329.05,394.56,322.51,394.56,414.76Z"/></svg>